<?xml version="1.0" standalone="no"?>
<!DOCTYPE svg PUBLIC "-//W3C//DTD SVG 20010904//EN"
 "http://www.w3.org/TR/2001/REC-SVG-20010904/DTD/svg10.dtd">
<svg version="1.0" xmlns="http://www.w3.org/2000/svg"
 width="120.000000pt" height="120.000000pt" viewBox="0 0 120.000000 120.000000"
 preserveAspectRatio="xMidYMid meet">
<metadata>
Created by potrace 1.14, written by Peter Selinger 2001-2017
</metadata>
<g transform="translate(0.000000,120.000000) scale(0.100000,-0.100000)"
fill="#000000" stroke="none">
<path d="M419 995 c-4 -3 -35 -10 -69 -16 -84 -13 -108 -27 -190 -109 -39 -39
-74 -70 -78 -70 -4 0 -25 -17 -45 -38 l-37 -38 0 -362 0 -361 600 -1 600 0 0
240 c0 153 -4 240 -10 240 -5 0 -10 -4 -10 -8 0 -9 -83 -68 -142 -101 -53 -29
-138 -51 -208 -53 -57 -1 -180 28 -180 43 0 5 -6 9 -12 9 -19 0 -75 55 -105
103 -45 71 -61 156 -39 209 16 38 56 80 43 44 -6 -15 -4 -17 14 -13 15 4 19 2
15 -8 -9 -24 12 -27 28 -4 17 25 36 18 29 -11 -8 -32 15 -23 33 12 l17 32 23
-27 c26 -30 39 -22 25 15 -10 27 1 59 13 39 4 -6 14 -11 23 -11 14 0 14 3 1
22 -8 12 -23 23 -34 24 -96 13 -132 28 -114 49 6 7 8 25 4 39 -4 16 -2 26 5
26 6 0 11 -4 11 -10 0 -5 6 -10 14 -10 9 0 12 8 8 25 -5 30 -52 60 -107 69
-85 14 -120 17 -126 11z"/>
</g>
</svg>
